<svg width="16" height="16" viewBox="0 0 16 16" fill="none" xmlns="http://www.w3.org/2000/svg">
<g clip-path="url(#clip0_15_675)">
<path fill-rule="evenodd" clip-rule="evenodd" d="M10.417 4.46887C10.4693 4.57479 10.5454 4.66711 10.6395 4.73857C10.7347 4.8106 10.8449 4.8603 10.962 4.88399L14.6508 5.62997C14.7957 5.65814 14.9294 5.72725 15.0361 5.8291C15.1429 5.93094 15.2182 6.06126 15.2531 6.2046C15.2866 6.34728 15.2779 6.49662 15.228 6.63441C15.178 6.77219 15.089 6.89245 14.9719 6.98051L12.1017 9.15779C11.9897 9.24162 11.9032 9.35483 11.8516 9.48486C11.8004 9.61412 11.7865 9.75514 11.8114 9.89193L12.5858 14.2022C12.6112 14.3459 12.5945 14.494 12.5376 14.6284C12.4806 14.7628 12.386 14.8778 12.265 14.9595C12.1426 15.0428 11.9995 15.0904 11.8516 15.0969C11.7037 15.1034 11.5569 15.0685 11.4277 14.9962L8.11171 13.1327C7.9929 13.0662 7.85902 13.0313 7.72287 13.0313C7.58672 13.0313 7.45285 13.0662 7.33404 13.1327L4.0178 14.9962C3.88873 15.0687 3.74195 15.1037 3.59404 15.0973C3.44613 15.0908 3.30299 15.043 3.18076 14.9595C3.05979 14.8778 2.9651 14.7628 2.90817 14.6284C2.85123 14.494 2.83449 14.3459 2.85998 14.2022L3.63438 9.89269C3.65928 9.7559 3.64532 9.61487 3.59412 9.48561C3.54256 9.35559 3.45601 9.24238 3.34404 9.15854L0.473879 6.98126C0.356725 6.89321 0.267736 6.77294 0.217788 6.63516C0.167839 6.49738 0.159096 6.34803 0.192604 6.20536C0.227566 6.06206 0.302854 5.93178 0.409553 5.82994C0.516252 5.72811 0.649896 5.65897 0.794665 5.63072L4.48299 4.88475C4.60003 4.86124 4.71022 4.81152 4.80528 4.73933C4.89931 4.66781 4.97552 4.57549 5.02795 4.46962L7.02004 0.440885C7.08594 0.311103 7.18649 0.2021 7.31055 0.125962C7.4346 0.0498233 7.57731 0.00952148 7.72287 0.00952148C7.86842 0.00952148 8.01114 0.0498233 8.13519 0.125962C8.25924 0.2021 8.3598 0.311103 8.4257 0.440885L10.417 4.46887Z" fill="#E9D100"/>
</g>
<defs>
<clipPath id="clip0_15_675">
<rect width="15.1111" height="15.1111" fill="white" transform="translate(0.166748)"/>
</clipPath>
</defs>
</svg>
