<svg width="16" height="16" viewBox="0 0 16 16" fill="none" xmlns="http://www.w3.org/2000/svg">
<g clip-path="url(#clip0_15_673)">
<path fill-rule="evenodd" clip-rule="evenodd" d="M10.6946 4.46887C10.7469 4.57479 10.823 4.66711 10.917 4.73857C11.0123 4.8106 11.1225 4.8603 11.2396 4.88399L14.9284 5.62997C15.0732 5.65814 15.207 5.72725 15.3137 5.8291C15.4205 5.93094 15.4958 6.06126 15.5307 6.2046C15.5642 6.34728 15.5555 6.49662 15.5055 6.63441C15.4556 6.77219 15.3666 6.89245 15.2494 6.98051L12.3793 9.15779C12.2673 9.24162 12.1808 9.35483 12.1292 9.48486C12.078 9.61412 12.0641 9.75514 12.0889 9.89193L12.8633 14.2022C12.8888 14.3459 12.8721 14.494 12.8152 14.6284C12.7582 14.7628 12.6635 14.8778 12.5426 14.9595C12.4202 15.0428 12.277 15.0904 12.1291 15.0969C11.9813 15.1034 11.8345 15.0685 11.7053 14.9962L8.3893 13.1327C8.27049 13.0662 8.13661 13.0313 8.00046 13.0313C7.86431 13.0313 7.73044 13.0662 7.61163 13.1327L4.29539 14.9962C4.16632 15.0687 4.01954 15.1037 3.87163 15.0973C3.72372 15.0908 3.58058 15.043 3.45835 14.9595C3.33738 14.8778 3.24269 14.7628 3.18575 14.6284C3.12882 14.494 3.11208 14.3459 3.13757 14.2022L3.91197 9.89269C3.93686 9.7559 3.92291 9.61487 3.8717 9.48561C3.82015 9.35559 3.7336 9.24238 3.62163 9.15854L0.751467 6.98126C0.634313 6.89321 0.545324 6.77294 0.495376 6.63516C0.445427 6.49738 0.436683 6.34803 0.470192 6.20536C0.505154 6.06206 0.580441 5.93178 0.687141 5.82994C0.79384 5.72811 0.927484 5.65897 1.07225 5.63072L4.76058 4.88475C4.87762 4.86124 4.98781 4.81152 5.08287 4.73933C5.1769 4.66781 5.25311 4.57549 5.30553 4.46962L7.29763 0.440885C7.36353 0.311103 7.46408 0.2021 7.58813 0.125962C7.71219 0.0498233 7.8549 0.00952148 8.00046 0.00952148C8.14601 0.00952148 8.28873 0.0498233 8.41278 0.125962C8.53683 0.2021 8.63738 0.311103 8.70328 0.440885L10.6946 4.46887Z" fill="#E9D100"/>
</g>
<defs>
<clipPath id="clip0_15_673">
<rect width="15.1111" height="15.1111" fill="white" transform="translate(0.444336)"/>
</clipPath>
</defs>
</svg>
