<svg width="16" height="16" viewBox="0 0 16 16" fill="none" xmlns="http://www.w3.org/2000/svg">
<g clip-path="url(#clip0_15_671)">
<path fill-rule="evenodd" clip-rule="evenodd" d="M10.9725 4.46887C11.0247 4.57479 11.1008 4.66711 11.1949 4.73857C11.2901 4.8106 11.4004 4.8603 11.5174 4.88399L15.2062 5.62997C15.3511 5.65814 15.4848 5.72725 15.5915 5.8291C15.6983 5.93094 15.7736 6.06126 15.8086 6.2046C15.8421 6.34728 15.8333 6.49662 15.7834 6.63441C15.7334 6.77219 15.6444 6.89245 15.5273 6.98051L12.6571 9.15779C12.5451 9.24162 12.4586 9.35483 12.407 9.48486C12.3558 9.61412 12.3419 9.75514 12.3668 9.89193L13.1412 14.2022C13.1667 14.3459 13.1499 14.494 13.093 14.6284C13.0361 14.7628 12.9414 14.8778 12.8204 14.9595C12.698 15.0428 12.5549 15.0904 12.407 15.0969C12.2591 15.1034 12.1123 15.0685 11.9831 14.9962L8.66713 13.1327C8.54832 13.0662 8.41444 13.0313 8.27829 13.0313C8.14214 13.0313 8.00827 13.0662 7.88946 13.1327L4.57322 14.9962C4.44415 15.0687 4.29737 15.1037 4.14946 15.0973C4.00155 15.0908 3.85841 15.043 3.73618 14.9595C3.61521 14.8778 3.52052 14.7628 3.46359 14.6284C3.40665 14.494 3.38991 14.3459 3.4154 14.2022L4.1898 9.89269C4.2147 9.7559 4.20074 9.61487 4.14954 9.48561C4.09798 9.35559 4.01143 9.24238 3.89946 9.15854L1.0293 6.98126C0.912145 6.89321 0.823156 6.77294 0.773208 6.63516C0.723259 6.49738 0.714516 6.34803 0.748024 6.20536C0.782986 6.06206 0.858273 5.93178 0.964973 5.82994C1.07167 5.72811 1.20532 5.65897 1.35008 5.63072L5.03841 4.88475C5.15545 4.86124 5.26564 4.81152 5.3607 4.73933C5.45473 4.66781 5.53094 4.57549 5.58337 4.46962L7.57546 0.440885C7.64136 0.311103 7.74191 0.2021 7.86597 0.125962C7.99002 0.0498233 8.13273 0.00952148 8.27829 0.00952148C8.42384 0.00952148 8.56656 0.0498233 8.69061 0.125962C8.81466 0.2021 8.91522 0.311103 8.98112 0.440885L10.9725 4.46887Z" fill="#E9D100"/>
</g>
<defs>
<clipPath id="clip0_15_671">
<rect width="15.1111" height="15.1111" fill="white" transform="translate(0.722168)"/>
</clipPath>
</defs>
</svg>
