<svg width="16" height="16" viewBox="0 0 16 16" fill="none" xmlns="http://www.w3.org/2000/svg">
<g clip-path="url(#clip0_15_677)">
<path fill-rule="evenodd" clip-rule="evenodd" d="M11.1392 4.46887C11.1915 4.57479 11.2676 4.66711 11.3616 4.73857C11.4569 4.8106 11.5671 4.8603 11.6842 4.88399L15.373 5.62997C15.5178 5.65814 15.6515 5.72725 15.7583 5.8291C15.865 5.93094 15.9404 6.06126 15.9753 6.2046C16.0088 6.34728 16.0001 6.49662 15.9501 6.63441C15.9002 6.77219 15.8112 6.89245 15.694 6.98051L12.8239 9.15779C12.7119 9.24162 12.6253 9.35483 12.5738 9.48486C12.5226 9.61412 12.5086 9.75514 12.5335 9.89193L13.3079 14.2022C13.3334 14.3459 13.3167 14.494 13.2597 14.6284C13.2028 14.7628 13.1081 14.8778 12.9872 14.9595C12.8648 15.0428 12.7216 15.0904 12.5737 15.0969C12.4258 15.1034 12.279 15.0685 12.1499 14.9962L8.83388 13.1327C8.71507 13.0662 8.58119 13.0313 8.44504 13.0313C8.30889 13.0313 8.17502 13.0662 8.05621 13.1327L4.73997 14.9962C4.6109 15.0687 4.46412 15.1037 4.31621 15.0973C4.1683 15.0908 4.02516 15.043 3.90293 14.9595C3.78196 14.8778 3.68727 14.7628 3.63033 14.6284C3.5734 14.494 3.55666 14.3459 3.58215 14.2022L4.35655 9.89269C4.38144 9.7559 4.36749 9.61487 4.31628 9.48561C4.26473 9.35559 4.17818 9.24238 4.06621 9.15854L1.19605 6.98126C1.07889 6.89321 0.989904 6.77294 0.939956 6.63516C0.890007 6.49738 0.881264 6.34803 0.914772 6.20536C0.949734 6.06206 1.02502 5.93178 1.13172 5.82994C1.23842 5.72811 1.37206 5.65897 1.51683 5.63072L5.20516 4.88475C5.3222 4.86124 5.43239 4.81152 5.52745 4.73933C5.62148 4.66781 5.69769 4.57549 5.75011 4.46962L7.74221 0.440885C7.80811 0.311103 7.90866 0.2021 8.03271 0.125962C8.15677 0.0498233 8.29948 0.00952148 8.44504 0.00952148C8.59059 0.00952148 8.73331 0.0498233 8.85736 0.125962C8.98141 0.2021 9.08196 0.311103 9.14786 0.440885L11.1392 4.46887Z" fill="#E9D100"/>
</g>
<defs>
<clipPath id="clip0_15_677">
<rect width="15.1111" height="15.1111" fill="white" transform="translate(0.888916)"/>
</clipPath>
</defs>
</svg>
