<svg width="16" height="16" viewBox="0 0 16 16" fill="none" xmlns="http://www.w3.org/2000/svg">
<g clip-path="url(#clip0_15_669)">
<path fill-rule="evenodd" clip-rule="evenodd" d="M10.2503 4.46887C10.3025 4.57479 10.3787 4.66711 10.4727 4.73857C10.568 4.8106 10.6782 4.8603 10.7952 4.88399L14.4841 5.62997C14.6289 5.65814 14.7626 5.72725 14.8694 5.8291C14.9761 5.93094 15.0514 6.06126 15.0864 6.2046C15.1199 6.34728 15.1112 6.49662 15.0612 6.63441C15.0113 6.77219 14.9223 6.89245 14.8051 6.98051L11.9349 9.15779C11.823 9.24162 11.7364 9.35483 11.6849 9.48486C11.6337 9.61412 11.6197 9.75514 11.6446 9.89193L12.419 14.2022C12.4445 14.3459 12.4278 14.494 12.3708 14.6284C12.3139 14.7628 12.2192 14.8778 12.0982 14.9595C11.9759 15.0428 11.8327 15.0904 11.6848 15.0969C11.5369 15.1034 11.3901 15.0685 11.2609 14.9962L7.94496 13.1327C7.82615 13.0662 7.69227 13.0313 7.55612 13.0313C7.41997 13.0313 7.28611 13.0662 7.16729 13.1327L3.85105 14.9962C3.72198 15.0687 3.5752 15.1037 3.42729 15.0973C3.27938 15.0908 3.13624 15.043 3.01402 14.9595C2.89304 14.8778 2.79835 14.7628 2.74142 14.6284C2.68448 14.494 2.66774 14.3459 2.69323 14.2022L3.46763 9.89269C3.49253 9.7559 3.47857 9.61487 3.42737 9.48561C3.37581 9.35559 3.28926 9.24238 3.1773 9.15854L0.307131 6.98126C0.189977 6.89321 0.100988 6.77294 0.0510396 6.63516C0.00109072 6.49738 -0.00765246 6.34803 0.0258558 6.20536C0.0608176 6.06206 0.136105 5.93178 0.242805 5.82994C0.349504 5.72811 0.483148 5.65897 0.627917 5.63072L4.31625 4.88475C4.43328 4.86124 4.54347 4.81152 4.63854 4.73933C4.73257 4.66781 4.80877 4.57549 4.8612 4.46962L6.85329 0.440885C6.91919 0.311103 7.01975 0.2021 7.1438 0.125962C7.26785 0.0498233 7.41057 0.00952148 7.55612 0.00952148C7.70168 0.00952148 7.84439 0.0498233 7.96844 0.125962C8.0925 0.2021 8.19305 0.311103 8.25895 0.440885L10.2503 4.46887Z" fill="#E9D100"/>
</g>
<defs>
<clipPath id="clip0_15_669">
<rect width="15.1111" height="15.1111" fill="white"/>
</clipPath>
</defs>
</svg>
