<svg width="130" height="130" viewBox="0 0 130 130" fill="none" xmlns="http://www.w3.org/2000/svg">
<g filter="url(#filter0_d_167_611)">
<circle cx="62" cy="62" r="55" fill="white"/>
</g>
<path d="M64.968 72.3905C65.929 73.0286 67.2102 73.0286 68.1712 72.3905L84.1872 63.1381V64.0952C86.4294 64.0952 88.6717 64.4143 90.5936 65.3714V59.6286L93.7968 57.7143C95.3984 56.7571 95.7187 54.8429 95.0781 53.2476L90.2733 45.2714C89.953 44.6333 89.6326 43.9952 88.992 43.6762L63.6867 29.6381C63.0461 29.319 62.4054 29 61.7648 29C61.1241 29 60.4835 29.319 59.8429 29.6381L34.8579 43.6762C34.2173 43.9952 33.5766 44.3143 33.2563 44.9524L28.4515 53.2476C27.4905 54.8429 28.1312 56.7571 29.7328 57.7143C30.6937 58.3524 31.975 58.3524 32.936 57.7143V75.2619C32.936 76.5381 33.5766 77.4952 34.5376 78.1333L59.8429 92.1714C60.4835 92.4905 61.1241 92.8095 61.7648 92.8095C62.4054 92.8095 63.0461 92.4905 63.6867 92.1714L66.5696 90.5762C65.6086 88.6619 65.2883 86.4286 64.968 84.1952M58.5616 84.1952L39.3424 73.3476V51.9714L58.5616 62.819V84.1952ZM87.7107 53.5667L67.5306 65.0524L65.6086 61.8619L85.7888 50.3762L87.7107 53.5667ZM61.7648 57.0762V36.019L80.984 46.5476L61.7648 57.0762ZM87.3904 70.4762V80.0476H97V86.4286H87.3904V96H80.984V86.4286H71.3744V80.0476H80.984V70.4762H87.3904Z" fill="#F26A29"/>
<defs>
<filter id="filter0_d_167_611" x="0" y="0" width="130" height="130" filterUnits="userSpaceOnUse" color-interpolation-filters="sRGB">
<feFlood flood-opacity="0" result="BackgroundImageFix"/>
<feColorMatrix in="SourceAlpha" type="matrix" values="0 0 0 0 0 0 0 0 0 0 0 0 0 0 0 0 0 0 127 0" result="hardAlpha"/>
<feOffset dx="3" dy="3"/>
<feGaussianBlur stdDeviation="5"/>
<feComposite in2="hardAlpha" operator="out"/>
<feColorMatrix type="matrix" values="0 0 0 0 0 0 0 0 0 0 0 0 0 0 0 0 0 0 0.25 0"/>
<feBlend mode="normal" in2="BackgroundImageFix" result="effect1_dropShadow_167_611"/>
<feBlend mode="normal" in="SourceGraphic" in2="effect1_dropShadow_167_611" result="shape"/>
</filter>
</defs>
</svg>
