<svg width="130" height="130" viewBox="0 0 130 130" fill="none" xmlns="http://www.w3.org/2000/svg">
<g filter="url(#filter0_d_167_608)">
<circle cx="62" cy="62" r="55" fill="white"/>
</g>
<path d="M35.8182 39H76.5455V50.75H85.2727L94 62.5V77.1875H88.1818C88.1818 79.5247 87.2623 81.7662 85.6257 83.4189C83.989 85.0715 81.7692 86 79.4545 86C77.1399 86 74.9201 85.0715 73.2834 83.4189C71.6468 81.7662 70.7273 79.5247 70.7273 77.1875H53.2727C53.2727 79.5247 52.3533 81.7662 50.7166 83.4189C49.0799 85.0715 46.8601 86 44.5455 86C42.2308 86 40.011 85.0715 38.3743 83.4189C36.7377 81.7662 35.8182 79.5247 35.8182 77.1875H30V44.875C30 41.6144 32.6182 39 35.8182 39ZM76.5455 55.1562V62.5H89.5491L83.8182 55.1562H76.5455ZM44.5455 72.7812C43.3881 72.7812 42.2782 73.2455 41.4599 74.0718C40.6416 74.8981 40.1818 76.0189 40.1818 77.1875C40.1818 78.3561 40.6416 79.4769 41.4599 80.3032C42.2782 81.1295 43.3881 81.5938 44.5455 81.5938C45.7028 81.5938 46.8127 81.1295 47.631 80.3032C48.4494 79.4769 48.9091 78.3561 48.9091 77.1875C48.9091 76.0189 48.4494 74.8981 47.631 74.0718C46.8127 73.2455 45.7028 72.7812 44.5455 72.7812ZM79.4545 72.7812C78.2972 72.7812 77.1873 73.2455 76.369 74.0718C75.5507 74.8981 75.0909 76.0189 75.0909 77.1875C75.0909 78.3561 75.5507 79.4769 76.369 80.3032C77.1873 81.1295 78.2972 81.5938 79.4545 81.5938C80.6119 81.5938 81.7218 81.1295 82.5401 80.3032C83.3584 79.4769 83.8182 78.3561 83.8182 77.1875C83.8182 76.0189 83.3584 74.8981 82.5401 74.0718C81.7218 73.2455 80.6119 72.7812 79.4545 72.7812ZM50.3636 68.375L67.8182 50.75L63.7164 46.5787L50.3636 60.0619L44.2836 53.9225L40.1818 58.0938L50.3636 68.375Z" fill="#F26A29"/>
<defs>
<filter id="filter0_d_167_608" x="0" y="0" width="130" height="130" filterUnits="userSpaceOnUse" color-interpolation-filters="sRGB">
<feFlood flood-opacity="0" result="BackgroundImageFix"/>
<feColorMatrix in="SourceAlpha" type="matrix" values="0 0 0 0 0 0 0 0 0 0 0 0 0 0 0 0 0 0 127 0" result="hardAlpha"/>
<feOffset dx="3" dy="3"/>
<feGaussianBlur stdDeviation="5"/>
<feComposite in2="hardAlpha" operator="out"/>
<feColorMatrix type="matrix" values="0 0 0 0 0 0 0 0 0 0 0 0 0 0 0 0 0 0 0.25 0"/>
<feBlend mode="normal" in2="BackgroundImageFix" result="effect1_dropShadow_167_608"/>
<feBlend mode="normal" in="SourceGraphic" in2="effect1_dropShadow_167_608" result="shape"/>
</filter>
</defs>
</svg>
