<svg width="20" height="21" viewBox="0 0 20 21" fill="none" xmlns="http://www.w3.org/2000/svg">
<path d="M9.99967 14.875C10.4417 14.875 10.8656 14.6906 11.1782 14.3624C11.4907 14.0342 11.6663 13.5891 11.6663 13.125C11.6663 12.1538 10.9163 11.375 9.99967 11.375C9.55765 11.375 9.13372 11.5594 8.82116 11.8876C8.5086 12.2158 8.33301 12.6609 8.33301 13.125C8.33301 13.5891 8.5086 14.0342 8.82116 14.3624C9.13372 14.6906 9.55765 14.875 9.99967 14.875ZM14.9997 7C15.4417 7 15.8656 7.18437 16.1782 7.51256C16.4907 7.84075 16.6663 8.28587 16.6663 8.75V17.5C16.6663 17.9641 16.4907 18.4092 16.1782 18.7374C15.8656 19.0656 15.4417 19.25 14.9997 19.25H4.99967C4.55765 19.25 4.13372 19.0656 3.82116 18.7374C3.5086 18.4092 3.33301 17.9641 3.33301 17.5V8.75C3.33301 7.77875 4.08301 7 4.99967 7H5.83301V5.25C5.83301 4.08968 6.27199 2.97688 7.0534 2.15641C7.8348 1.33594 8.89461 0.875 9.99967 0.875C10.5468 0.875 11.0887 0.988163 11.5942 1.20803C12.0997 1.42789 12.559 1.75015 12.946 2.15641C13.3329 2.56266 13.6398 3.04496 13.8492 3.57576C14.0586 4.10656 14.1663 4.67547 14.1663 5.25V7H14.9997ZM9.99967 2.625C9.33663 2.625 8.70075 2.90156 8.23191 3.39384C7.76307 3.88613 7.49967 4.55381 7.49967 5.25V7H12.4997V5.25C12.4997 4.55381 12.2363 3.88613 11.7674 3.39384C11.2986 2.90156 10.6627 2.625 9.99967 2.625Z" fill="black" fill-opacity="0.5"/>
</svg>
