<svg width="44" height="40" viewBox="0 0 44 40" fill="none" xmlns="http://www.w3.org/2000/svg">
<path d="M7 23.18C8 23.74 8.28 25 7.74 25.92C7.18 26.88 6 27.2 5 26.66C2 24.94 0 21.7 0 18C0 15.3478 1.05357 12.8043 2.92893 10.9289C4.8043 9.05357 7.34784 8 10 8C12 3.3 16.6 0 22 0C28.86 0 34.48 5.32 35 12.06L36 12C38.1217 12 40.1566 12.8429 41.6569 14.3431C43.1571 15.8434 44 17.8783 44 20C44 22.1217 43.1571 24.1566 41.6569 25.6569C40.1566 27.1571 38.1217 28 36 28C35.4696 28 34.9609 27.7893 34.5858 27.4142C34.2107 27.0391 34 26.5304 34 26C34 25.4696 34.2107 24.9609 34.5858 24.5858C34.9609 24.2107 35.4696 24 36 24C37.0609 24 38.0783 23.5786 38.8284 22.8284C39.5786 22.0783 40 21.0609 40 20C40 18.9391 39.5786 17.9217 38.8284 17.1716C38.0783 16.4214 37.0609 16 36 16H32V14C32 11.3478 30.9464 8.8043 29.0711 6.92893C27.1957 5.05357 24.6522 4 22 4C17 4 12.9 7.64 12.12 12.38C11.46 12.14 10.74 12 10 12C8.4087 12 6.88258 12.6321 5.75736 13.7574C4.63214 14.8826 4 16.4087 4 18C4 20.22 5.2 22.16 7 23.2V23.18ZM17 18H23L19 26H23L15.5 40L17 30H12L17 18ZM33 33.34C33 35.92 31 38 28.5 38C26 38 24 35.92 24 33.34C24 30.24 28.5 25 28.5 25C28.5 25 33 30.24 33 33.34Z" fill="#F26A29"/>
</svg>
