<svg width="36" height="44" viewBox="0 0 36 44" fill="none" xmlns="http://www.w3.org/2000/svg">
<path d="M18 0L0 8V20C0 31.1 7.68 41.48 18 44C28.32 41.48 36 31.1 36 20V8L18 0ZM18 15.78C21.2 15.78 23.78 18.36 23.78 21.56C23.78 24.76 21.2 27.34 18 27.34C14.8 27.34 12.22 24.74 12.22 21.56C12.22 18.38 14.82 15.78 18 15.78ZM18 10L20.76 14C19.92 13.64 19 13.46 18 13.46C17 13.46 16.1 13.64 15.24 14L18 10ZM8 15.78L12.8 15.38C12.12 16 11.48 16.68 11 17.52C10.5 18.36 10.2 19.24 10 20.16L8 15.78ZM8 27.34L10.06 23C10.22 23.86 10.54 24.76 11 25.6C11.5 26.46 12.12 27.18 12.8 27.76L8 27.34ZM28 15.78L26 20.16C25.8 19.24 25.48 18.36 25 17.52C24.52 16.68 23.9 16 23.2 15.36L28 15.78ZM28 27.34L23.2 27.74C23.88 27.16 24.5 26.44 25 25.6C25.48 24.76 25.78 23.86 25.94 23L28 27.34ZM18 33.1L15.22 29.14C16.08 29.44 17 29.64 18 29.64C19 29.64 19.9 29.44 20.74 29.14L18 33.1Z" fill="#F26A29"/>
</svg>
