<svg width="22" height="18" viewBox="0 0 22 18" fill="none" xmlns="http://www.w3.org/2000/svg">
<path d="M22 11.75C22 15.2 19.2 18 15.75 18H6.25C2.8 18 0 15.2 0 11.75C0 9.61 1.08 7.72 2.71 6.6C3.58 2.82 6.96 0 11 0C15.04 0 18.42 2.82 19.29 6.6C20.93 7.72 22 9.61 22 11.75ZM15.63 14C16.94 14 18 12.94 18 11.63C18 10.35 17 9.3 15.72 9.25L15.75 8.75C15.75 6.13 13.62 4 11 4C9.58 4 8.3 4.62 7.43 5.61C8.93 5.9 10.23 6.72 11.14 7.86L8.5 10.5C8.08 9.77 7.29 9.25 6.38 9.25C5.06 9.25 4 10.31 4 11.63C4 12.9 5 13.93 6.25 14H15.63Z" fill="black" fill-opacity="0.7"/>
</svg>
