<svg width="61" height="74" viewBox="0 0 61 74" fill="none" xmlns="http://www.w3.org/2000/svg">
<path d="M30.5 0L0 13.4545V33.6364C0 52.3045 13.0133 69.7618 30.5 74C47.9867 69.7618 61 52.3045 61 33.6364V13.4545L30.5 0ZM30.5 13.4545C33.1964 13.4545 35.7823 14.5177 37.6889 16.4101C39.5955 18.3025 40.6667 20.8692 40.6667 23.5455C40.6667 26.2217 39.5955 28.7884 37.6889 30.6808C35.7823 32.5732 33.1964 33.6364 30.5 33.6364C27.8036 33.6364 25.2177 32.5732 23.3111 30.6808C21.4045 28.7884 20.3333 26.2217 20.3333 23.5455C20.3333 20.8692 21.4045 18.3025 23.3111 16.4101C25.2177 14.5177 27.8036 13.4545 30.5 13.4545ZM47.885 53.8182C43.7844 60.0409 37.6506 64.7164 30.5 67.0036C23.3494 64.7164 17.2156 60.0409 13.115 53.8182C11.9628 52.1364 10.98 50.4545 10.1667 48.6718C10.1667 43.1218 19.3506 38.5809 30.5 38.5809C41.6494 38.5809 50.8333 43.0209 50.8333 48.6718C50.02 50.4545 49.0372 52.1364 47.885 53.8182Z" fill="white"/>
</svg>
