<svg width="43" height="43" viewBox="0 0 43 43" fill="none" xmlns="http://www.w3.org/2000/svg">
<path d="M28.6667 21.5H33.4444C33.4444 18.3321 32.186 15.294 29.946 13.054C27.706 10.814 24.6679 9.55556 21.5 9.55556V14.3333C23.4007 14.3333 25.2236 15.0884 26.5676 16.4324C27.9116 17.7764 28.6667 19.5993 28.6667 21.5ZM38.2222 21.5H43C43 9.55556 33.3728 0 21.5 0V4.77778C30.7211 4.77778 38.2222 12.255 38.2222 21.5ZM40.6111 29.8611C37.625 29.8611 34.7583 29.3833 32.0828 28.4994C31.2467 28.2367 30.315 28.4278 29.6461 29.0967L24.3906 34.3522C17.63 30.9122 12.0878 25.37 8.64778 18.6094L13.9033 13.3539C14.5722 12.685 14.7633 11.7533 14.5006 10.9172C13.6167 8.24167 13.1389 5.375 13.1389 2.38889C13.1389 1.75532 12.8872 1.14769 12.4392 0.699689C11.9912 0.251686 11.3836 0 10.75 0H2.38889C1.75532 0 1.14769 0.251686 0.699689 0.699689C0.251686 1.14769 0 1.75532 0 2.38889C0 13.1596 4.27866 23.4892 11.8947 31.1053C19.5108 38.7213 29.8404 43 40.6111 43C41.2447 43 41.8523 42.7483 42.3003 42.3003C42.7483 41.8523 43 41.2447 43 40.6111V32.25C43 31.6164 42.7483 31.0088 42.3003 30.5608C41.8523 30.1128 41.2447 29.8611 40.6111 29.8611Z" fill="#F26A29"/>
</svg>
