<svg width="67" height="61" viewBox="0 0 67 61" fill="none" xmlns="http://www.w3.org/2000/svg">
<path d="M56.012 39.7709C57.1845 36.9158 57.821 33.859 57.821 30.5C57.821 28.0815 57.4525 25.7638 56.816 23.614C54.6385 24.1178 52.3605 24.3866 49.982 24.3866C39.731 24.3866 30.6525 19.3144 25.125 11.4879C22.1435 18.7434 16.4485 24.6553 9.2795 27.88C9.1455 28.7197 9.1455 29.6267 9.1455 30.5C9.1455 36.9766 11.7114 43.188 16.2788 47.7677C20.8461 52.3473 27.0408 54.9202 33.5 54.9202C37.0175 54.9202 40.401 54.1476 43.4495 52.7704C45.359 56.4317 46.23 58.2456 46.163 58.2456C40.669 60.0931 36.4145 61 33.5 61C25.393 61 17.6545 57.8089 11.9595 52.065C8.4755 48.5716 5.896 44.3056 4.4555 39.6702H0V24.3866H3.6515C6.4655 10.4802 18.76 0 33.5 0C41.54 0 49.2785 3.19108 55.007 8.93502C59.2615 13.1674 62.109 18.5754 63.2815 24.3866H67V39.4686V39.5358V39.6702H66.799L54.873 50.6542L37.118 48.6388V43.0292H53.2985L56.012 39.7709ZM24.3545 29.7274C25.3595 29.7274 26.331 30.1305 27.0345 30.8695C27.738 31.5749 28.14 32.549 28.14 33.5567C28.14 34.5644 27.738 35.5385 27.0345 36.2439C26.331 36.9493 25.3595 37.3524 24.3545 37.3524C22.244 37.3524 20.5355 35.6729 20.5355 33.5567C20.5355 31.4405 22.244 29.7274 24.3545 29.7274ZM42.612 29.7274C44.7225 29.7274 46.3975 31.4405 46.3975 33.5567C46.3975 35.6729 44.7225 37.3524 42.612 37.3524C40.5015 37.3524 38.793 35.6729 38.793 33.5567C38.793 32.5411 39.1954 31.5671 39.9116 30.849C40.6278 30.1309 41.5991 29.7274 42.612 29.7274Z" fill="white"/>
</svg>
