<svg width="48" height="46" viewBox="0 0 48 46" fill="none" xmlns="http://www.w3.org/2000/svg">
<path d="M38.4 41.1579C35.736 41.1579 33.6 38.9789 33.6 36.3158C33.6 33.6284 35.736 31.4737 38.4 31.4737C39.673 31.4737 40.8939 31.9838 41.7941 32.8919C42.6943 33.8 43.2 35.0316 43.2 36.3158C43.2 37.6 42.6943 38.8316 41.7941 39.7397C40.8939 40.6477 39.673 41.1579 38.4 41.1579ZM38.4 26.6316C35.8539 26.6316 33.4121 27.6519 31.6118 29.468C29.8114 31.2842 28.8 33.7474 28.8 36.3158C28.8 38.8842 29.8114 41.3474 31.6118 43.1636C33.4121 44.9797 35.8539 46 38.4 46C40.9461 46 43.3879 44.9797 45.1882 43.1636C46.9886 41.3474 48 38.8842 48 36.3158C48 33.7474 46.9886 31.2842 45.1882 29.468C43.3879 27.6519 40.9461 26.6316 38.4 26.6316ZM24 22.0316C23.4012 22.0316 22.8082 22.1506 22.255 22.3817C21.7017 22.6129 21.199 22.9517 20.7756 23.3789C20.3522 23.806 20.0163 24.3131 19.7871 24.8712C19.5579 25.4293 19.44 26.0275 19.44 26.6316C19.44 27.8516 19.9204 29.0216 20.7756 29.8843C21.6308 30.7469 22.7906 31.2316 24 31.2316C25.2094 31.2316 26.3692 30.7469 27.2244 29.8843C28.0796 29.0216 28.56 27.8516 28.56 26.6316C28.56 26.0275 28.4421 25.4293 28.2129 24.8712C27.9837 24.3131 27.6478 23.806 27.2244 23.3789C26.801 22.9517 26.2983 22.6129 25.745 22.3817C25.1918 22.1506 24.5988 22.0316 24 22.0316ZM9.6 41.1579C6.936 41.1579 4.8 38.9789 4.8 36.3158C4.8 33.6284 6.936 31.4737 9.6 31.4737C10.873 31.4737 12.0939 31.9838 12.9941 32.8919C13.8943 33.8 14.4 35.0316 14.4 36.3158C14.4 37.6 13.8943 38.8316 12.9941 39.7397C12.0939 40.6477 10.873 41.1579 9.6 41.1579ZM9.6 26.6316C7.05392 26.6316 4.61212 27.6519 2.81178 29.468C1.01143 31.2842 0 33.7474 0 36.3158C0 38.8842 1.01143 41.3474 2.81178 43.1636C4.61212 44.9797 7.05392 46 9.6 46C12.1461 46 14.5879 44.9797 16.3882 43.1636C18.1886 41.3474 19.2 38.8842 19.2 36.3158C19.2 33.7474 18.1886 31.2842 16.3882 29.468C14.5879 27.6519 12.1461 26.6316 9.6 26.6316ZM24 4.84211C25.273 4.84211 26.4939 5.35225 27.3941 6.26032C28.2943 7.1684 28.8 8.4 28.8 9.68421C28.8 10.9684 28.2943 12.2 27.3941 13.1081C26.4939 14.0162 25.273 14.5263 24 14.5263C21.336 14.5263 19.2 12.3474 19.2 9.68421C19.2 6.99684 21.336 4.84211 24 4.84211ZM24 19.3684C26.5461 19.3684 28.9879 18.3481 30.7882 16.532C32.5886 14.7158 33.6 12.2526 33.6 9.68421C33.6 7.1158 32.5886 4.65258 30.7882 2.83644C28.9879 1.0203 26.5461 0 24 0C21.4539 0 19.0121 1.0203 17.2118 2.83644C15.4114 4.65258 14.4 7.1158 14.4 9.68421C14.4 12.2526 15.4114 14.7158 17.2118 16.532C19.0121 18.3481 21.4539 19.3684 24 19.3684Z" fill="#F26A29"/>
</svg>
