<svg width="67" height="67" viewBox="0 0 67 67" fill="none" xmlns="http://www.w3.org/2000/svg">
<path d="M53.265 51.5565C52.394 48.8765 49.8815 46.9 46.9 46.9H43.55V36.85C43.55 35.9615 43.1971 35.1094 42.5688 34.4812C41.9406 33.8529 41.0885 33.5 40.2 33.5H20.1V26.8H26.8C27.6885 26.8 28.5406 26.4471 29.1688 25.8188C29.7971 25.1906 30.15 24.3385 30.15 23.45V16.75H36.85C38.6269 16.75 40.3311 16.0441 41.5876 14.7876C42.8441 13.5311 43.55 11.827 43.55 10.05V8.6765C53.3655 12.6295 60.3 22.244 60.3 33.5C60.3 40.468 57.62 46.7995 53.265 51.5565ZM30.15 60.0655C16.9175 58.424 6.7 47.168 6.7 33.5C6.7 31.423 6.968 29.413 7.4035 27.5035L23.45 43.55V46.9C23.45 48.6769 24.1559 50.3811 25.4124 51.6376C26.6689 52.8941 28.373 53.6 30.15 53.6M33.5 0C29.1007 0 24.7445 0.866503 20.6801 2.55004C16.6157 4.23357 12.9227 6.70116 9.81192 9.81192C3.52945 16.0944 0 24.6152 0 33.5C0 42.3848 3.52945 50.9056 9.81192 57.1881C12.9227 60.2988 16.6157 62.7664 20.6801 64.45C24.7445 66.1335 29.1007 67 33.5 67C42.3848 67 50.9056 63.4705 57.1881 57.1881C63.4705 50.9056 67 42.3848 67 33.5C67 29.1007 66.1335 24.7445 64.45 20.6801C62.7664 16.6157 60.2988 12.9227 57.1881 9.81192C54.0773 6.70116 50.3843 4.23357 46.3199 2.55004C42.2555 0.866503 37.8993 0 33.5 0Z" fill="white"/>
</svg>
